<!--?xml version="1.0" encoding="utf-8"?-->
<!-- Svg Vector Icons : http://www.onlinewebfonts.com/icon -->

<svg version="1.1" xmlns="http://www.w3.org/2000/svg" xmlns:xlink="http://www.w3.org/1999/xlink" x="0px" y="0px" viewBox="0 0 256 256" enable-background="new 0 0 256 256" xml:space="preserve">
<metadata> Svg Vector Icons : http://www.onlinewebfonts.com/icon </metadata>
<g><g><g><path fill="#8B0000" data-title="Layer 0" xs="0" d="M27.2,114.2c-1.7,3.4-3.1,6.2-3.2,6.3c-0.1,0.1-3.1,0.6-6.8,1.1c-3.7,0.5-6.9,1.2-7.2,1.5c-0.3,0.3,1.1,2.1,4.6,5.5l5.1,5l-1.1,6.9c-0.6,3.8-0.9,7.1-0.7,7.3c0.2,0.2,3.2-1.1,6.7-2.9l6.3-3.3l6.3,3.3c3.4,1.8,6.5,3.1,6.7,2.9c0.2-0.2-0.2-3.5-0.8-7.3l-1.1-7l4.8-4.5c2.8-2.6,4.8-4.9,4.8-5.5c0-0.5-0.1-0.9-0.3-0.9c-0.3,0-10.1-1.4-12.1-1.7c-1.5-0.3-1.8-0.6-4.6-6.5c-1.9-4-3.2-6.2-3.7-6.2C30.5,108.1,29.2,110.3,27.2,114.2z"/><path fill="#8B0000" data-title="Layer 1" xs="1" d="M78.8,108.7c-0.3,0.3-1.8,3.1-3.3,6.2c-2.5,5.1-2.9,5.6-4.4,5.9c-0.9,0.1-3.9,0.6-6.6,1c-2.7,0.4-5.2,1-5.5,1.3c-0.3,0.3,1.3,2.2,4.6,5.6l5,5.1l-1.2,6.7c-0.8,4.5-1,6.8-0.7,7.2c0.3,0.3,2.5-0.5,6.7-2.7l6.2-3.2l6.2,3.2c4,2,6.4,3,6.7,2.7c0.3-0.3,0.1-2.9-0.7-7.2l-1.2-6.7l5.1-5.1c3.6-3.7,4.9-5.3,4.5-5.6c-0.3-0.3-3.5-1-7.2-1.5c-3.7-0.5-6.7-1.1-6.8-1.3c-1.1-2.7-6-11.8-6.4-12C79.5,108.2,79,108.4,78.8,108.7z"/><path fill="#8B0000" data-title="Layer 2" xs="2" d="M125,114.2c-1.7,3.4-3.1,6.2-3.2,6.3c-0.1,0.1-3.1,0.6-6.8,1.1c-3.7,0.5-6.9,1.2-7.2,1.5c-0.3,0.3,1.1,2.1,4.6,5.5l5.2,5l-1.1,6.9c-0.6,3.8-1,7.1-0.7,7.3c0.2,0.2,3.2-1.1,6.7-2.9l6.3-3.3l6.3,3.3c3.4,1.8,6.5,3.1,6.7,2.9c0.2-0.2-0.1-3.5-0.8-7.3l-1.1-7l4.8-4.5c2.8-2.6,4.8-4.9,4.8-5.5c0-0.5-0.1-0.9-0.3-0.9c-0.3,0-10.1-1.4-12.1-1.7c-1.5-0.3-1.8-0.7-4.6-6.5c-1.9-4-3.2-6.2-3.7-6.2C128.3,108.1,126.9,110.3,125,114.2z"/><path fill="#8B0000" data-title="Layer 3" xs="3" d="M175.2,109.2c-0.4,0.6-1.8,3.4-3.1,6.1c-1.3,2.7-2.4,5-2.4,5.1c-0.1,0.1-3,0.5-6.7,1.1c-3.6,0.5-6.9,1.2-7.2,1.5c-0.3,0.3,0.9,1.9,4.5,5.6l5.1,5.1l-1.2,6.7c-0.8,4.5-1,6.8-0.7,7.2c0.3,0.3,2.5-0.5,6.7-2.7l6.2-3.2l6.2,3.2c4.2,2.1,6.4,3,6.7,2.7c0.3-0.3,0.1-2.7-0.7-7.2l-1.2-6.7l5.1-5.1c3.4-3.4,4.9-5.3,4.5-5.6c-0.3-0.3-3.5-0.9-7.2-1.5c-3.9-0.6-6.8-1.3-6.9-1.6c-0.8-2-5.9-11.6-6.4-11.7C176.2,108.1,175.6,108.6,175.2,109.2z"/><path fill="#8B0000" data-title="Layer 4" xs="4" d="M221.2,114.3c-2.8,5.8-3.1,6.2-4.6,6.5c-0.9,0.1-3.9,0.6-6.8,1c-2.9,0.4-5.4,1-5.7,1.3c-0.3,0.3,1.2,2.2,4.7,5.5l5.1,5l-1.1,6.9c-0.6,3.8-1,7.1-0.7,7.3c0.2,0.2,3.2-1.1,6.7-2.9l6.3-3.3l6.3,3.3c3.4,1.8,6.5,3.1,6.7,2.9c0.3-0.2-0.1-3.5-0.7-7.3l-1.1-6.8l5.1-5.1c3.6-3.4,5-5.2,4.7-5.5c-0.3-0.3-3.5-0.9-7.2-1.5c-3.6-0.5-6.7-1-6.8-1.1c-0.1-0.1-1.5-2.9-3.1-6.3c-2-4-3.3-6.1-3.8-6.1C224.5,108.1,223.2,110.2,221.2,114.3z"/></g></g></g>
</svg>